  0
SECTION
  2
HEADER
  9
$ANGBASE
  50
0.0
  9
$ANGDIR
  70
  1
  9
$MEASUREMENT
  70
0
  0
ENDSEC
  0
SECTION
  2
TABLES
  0
TABLE
  2
LTYPE
  70
1
  0
LTYPE
  2
CONTINUOUS
  70
0
  3
Solid line
  72
65
  73
0
  40
0.0
  0
ENDTAB
  0
TABLE
  2
STYLE
  70
4
  0
STYLE
  2
KICAD
  70
0
  40
0
  41
1
  42
1
  50
0
  71
0
  3
isocp.shx
  0
STYLE
  2
KICADB
  70
0
  40
0
  41
1
  42
1
  50
0
  71
0
  3
isocp.shx
  0
STYLE
  2
KICADI
  70
0
  40
0
  41
1
  42
1
  50
15
  71
0
  3
isocp.shx
  0
STYLE
  2
KICADBI
  70
0
  40
0
  41
1
  42
1
  50
15
  71
0
  3
isocp.shx
  0
ENDTAB
  0
TABLE
  2
LAYER
  70
30
  0
LAYER
  2
BLACK
  70
0
  62
7
  6
CONTINUOUS
  0
LAYER
  2
GRAY1
  70
0
  62
251
  6
CONTINUOUS
  0
LAYER
  2
GRAY2
  70
0
  62
8
  6
CONTINUOUS
  0
LAYER
  2
GRAY3
  70
0
  62
9
  6
CONTINUOUS
  0
LAYER
  2
WHITE
  70
0
  62
7
  6
CONTINUOUS
  0
LAYER
  2
LYELLOW
  70
0
  62
51
  6
CONTINUOUS
  0
LAYER
  2
BLUE1
  70
0
  62
178
  6
CONTINUOUS
  0
LAYER
  2
GREEN1
  70
0
  62
98
  6
CONTINUOUS
  0
LAYER
  2
CYAN1
  70
0
  62
138
  6
CONTINUOUS
  0
LAYER
  2
RED1
  70
0
  62
18
  6
CONTINUOUS
  0
LAYER
  2
MAGENTA1
  70
0
  62
228
  6
CONTINUOUS
  0
LAYER
  2
BROWN1
  70
0
  62
58
  6
CONTINUOUS
  0
LAYER
  2
BLUE2
  70
0
  62
5
  6
CONTINUOUS
  0
LAYER
  2
GREEN2
  70
0
  62
3
  6
CONTINUOUS
  0
LAYER
  2
CYAN2
  70
0
  62
4
  6
CONTINUOUS
  0
LAYER
  2
RED2
  70
0
  62
1
  6
CONTINUOUS
  0
LAYER
  2
MAGENTA2
  70
0
  62
6
  6
CONTINUOUS
  0
LAYER
  2
BROWN2
  70
0
  62
54
  6
CONTINUOUS
  0
LAYER
  2
BLUE3
  70
0
  62
171
  6
CONTINUOUS
  0
LAYER
  2
GREEN3
  70
0
  62
91
  6
CONTINUOUS
  0
LAYER
  2
CYAN3
  70
0
  62
131
  6
CONTINUOUS
  0
LAYER
  2
RED3
  70
0
  62
11
  6
CONTINUOUS
  0
LAYER
  2
MAGENTA3
  70
0
  62
221
  6
CONTINUOUS
  0
LAYER
  2
YELLOW3
  70
0
  62
2
  6
CONTINUOUS
  0
LAYER
  2
BLUE4
  70
0
  62
5
  6
CONTINUOUS
  0
LAYER
  2
GREEN4
  70
0
  62
3
  6
CONTINUOUS
  0
LAYER
  2
CYAN4
  70
0
  62
4
  6
CONTINUOUS
  0
LAYER
  2
RED4
  70
0
  62
1
  6
CONTINUOUS
  0
LAYER
  2
MAGENTA4
  70
0
  62
6
  6
CONTINUOUS
  0
LAYER
  2
YELLOW4
  70
0
  62
2
  6
CONTINUOUS
  0
ENDTAB
  0
ENDSEC
  0
SECTION
  2
ENTITIES
0
LINE
8
Black
10
206.854
20
-62.4508
11
206.859
21
-62.4508
0
LINE
8
Black
10
206.859
20
-62.4508
11
206.863
21
-62.4523
0
LINE
8
Black
10
206.863
20
-62.4523
11
206.867
21
-62.453
0
LINE
8
Black
10
206.867
20
-62.453
11
206.871
21
-62.4552
0
LINE
8
Black
10
206.871
20
-62.4552
11
206.875
21
-62.4567
0
LINE
8
Black
10
206.875
20
-62.4567
11
206.878
21
-62.4595
0
LINE
8
Black
10
206.878
20
-62.4595
11
206.882
21
-62.4617
0
LINE
8
Black
10
206.882
20
-62.4617
11
206.885
21
-62.465
0
LINE
8
Black
10
206.885
20
-62.465
11
206.888
21
-62.4679
0
LINE
8
Black
10
206.888
20
-62.4679
11
206.89
21
-62.4716
0
LINE
8
Black
10
206.89
20
-62.4716
11
206.893
21
-62.475
0
LINE
8
Black
10
206.893
20
-62.475
11
206.895
21
-62.4791
0
LINE
8
Black
10
206.895
20
-62.4791
11
206.897
21
-62.4829
0
LINE
8
Black
10
206.897
20
-62.4829
11
206.898
21
-62.4872
0
LINE
8
Black
10
206.898
20
-62.4872
11
206.899
21
-62.4913
0
LINE
8
Black
10
206.899
20
-62.4913
11
206.899
21
-62.4957
0
LINE
8
Black
10
206.899
20
-62.4957
11
206.9
21
-62.5
0
LINE
8
Black
10
206.9
20
-62.5
11
206.9
21
-71.7
0
LINE
8
Black
10
206.9
20
-71.7
11
206.899
21
-71.7043
0
LINE
8
Black
10
206.899
20
-71.7043
11
206.899
21
-71.7087
0
LINE
8
Black
10
206.899
20
-71.7087
11
206.898
21
-71.7128
0
LINE
8
Black
10
206.898
20
-71.7128
11
206.897
21
-71.7171
0
LINE
8
Black
10
206.897
20
-71.7171
11
206.895
21
-71.7209
0
LINE
8
Black
10
206.895
20
-71.7209
11
206.893
21
-71.725
0
LINE
8
Black
10
206.893
20
-71.725
11
206.89
21
-71.7284
0
LINE
8
Black
10
206.89
20
-71.7284
11
206.888
21
-71.7321
0
LINE
8
Black
10
206.888
20
-71.7321
11
206.885
21
-71.735
0
LINE
8
Black
10
206.885
20
-71.735
11
206.882
21
-71.7383
0
LINE
8
Black
10
206.882
20
-71.7383
11
206.878
21
-71.7405
0
LINE
8
Black
10
206.878
20
-71.7405
11
206.875
21
-71.7433
0
LINE
8
Black
10
206.875
20
-71.7433
11
206.871
21
-71.7448
0
LINE
8
Black
10
206.871
20
-71.7448
11
206.867
21
-71.747
0
LINE
8
Black
10
206.867
20
-71.747
11
206.863
21
-71.7477
0
LINE
8
Black
10
206.863
20
-71.7477
11
206.859
21
-71.7492
0
LINE
8
Black
10
206.859
20
-71.7492
11
206.854
21
-71.7492
0
LINE
8
Black
10
206.854
20
-71.7492
11
206.85
21
-71.75
0
LINE
8
Black
10
206.85
20
-71.75
11
205.252
21
-71.75
0
LINE
8
Black
10
205.252
20
-71.75
11
205.209
21
-71.7538
0
LINE
8
Black
10
205.209
20
-71.7538
11
205.125
21
-71.7842
0
LINE
8
Black
10
205.125
20
-71.7842
11
205.059
21
-71.8398
0
LINE
8
Black
10
205.059
20
-71.8398
11
205.016
21
-71.9148
0
LINE
8
Black
10
205.016
20
-71.9148
11
205
21
-72.0044
0
LINE
8
Black
10
205
20
-72.0044
11
205
21
-74.3978
0
LINE
8
Black
10
205
20
-74.3978
11
205.004
21
-74.4412
0
LINE
8
Black
10
205.004
20
-74.4412
11
205.034
21
-74.5246
0
LINE
8
Black
10
205.034
20
-74.5246
11
205.09
21
-74.5909
0
LINE
8
Black
10
205.09
20
-74.5909
11
205.165
21
-74.6342
0
LINE
8
Black
10
205.165
20
-74.6342
11
205.254
21
-74.65
0
LINE
8
Black
10
205.254
20
-74.65
11
206.85
21
-74.65
0
LINE
8
Black
10
206.85
20
-74.65
11
206.854
21
-74.6508
0
LINE
8
Black
10
206.854
20
-74.6508
11
206.859
21
-74.6508
0
LINE
8
Black
10
206.859
20
-74.6508
11
206.863
21
-74.6523
0
LINE
8
Black
10
206.863
20
-74.6523
11
206.867
21
-74.653
0
LINE
8
Black
10
206.867
20
-74.653
11
206.871
21
-74.6552
0
LINE
8
Black
10
206.871
20
-74.6552
11
206.875
21
-74.6567
0
LINE
8
Black
10
206.875
20
-74.6567
11
206.878
21
-74.6595
0
LINE
8
Black
10
206.878
20
-74.6595
11
206.882
21
-74.6617
0
LINE
8
Black
10
206.882
20
-74.6617
11
206.885
21
-74.665
0
LINE
8
Black
10
206.885
20
-74.665
11
206.888
21
-74.6679
0
LINE
8
Black
10
206.888
20
-74.6679
11
206.89
21
-74.6716
0
LINE
8
Black
10
206.89
20
-74.6716
11
206.893
21
-74.675
0
LINE
8
Black
10
206.893
20
-74.675
11
206.895
21
-74.6791
0
LINE
8
Black
10
206.895
20
-74.6791
11
206.897
21
-74.6829
0
LINE
8
Black
10
206.897
20
-74.6829
11
206.898
21
-74.6872
0
LINE
8
Black
10
206.898
20
-74.6872
11
206.899
21
-74.6913
0
LINE
8
Black
10
206.899
20
-74.6913
11
206.899
21
-74.6957
0
LINE
8
Black
10
206.899
20
-74.6957
11
206.9
21
-74.7
0
LINE
8
Black
10
206.9
20
-74.7
11
206.9
21
-79.5
0
LINE
8
Black
10
206.9
20
-79.5
11
206.899
21
-79.5043
0
LINE
8
Black
10
206.899
20
-79.5043
11
206.899
21
-79.5087
0
LINE
8
Black
10
206.899
20
-79.5087
11
206.898
21
-79.5128
0
LINE
8
Black
10
206.898
20
-79.5128
11
206.897
21
-79.5171
0
LINE
8
Black
10
206.897
20
-79.5171
11
206.895
21
-79.5209
0
LINE
8
Black
10
206.895
20
-79.5209
11
206.893
21
-79.525
0
LINE
8
Black
10
206.893
20
-79.525
11
206.89
21
-79.5284
0
LINE
8
Black
10
206.89
20
-79.5284
11
206.888
21
-79.5321
0
LINE
8
Black
10
206.888
20
-79.5321
11
206.885
21
-79.535
0
LINE
8
Black
10
206.885
20
-79.535
11
206.882
21
-79.5383
0
LINE
8
Black
10
206.882
20
-79.5383
11
206.878
21
-79.5405
0
LINE
8
Black
10
206.878
20
-79.5405
11
206.875
21
-79.5433
0
LINE
8
Black
10
206.875
20
-79.5433
11
206.871
21
-79.5448
0
LINE
8
Black
10
206.871
20
-79.5448
11
206.867
21
-79.547
0
LINE
8
Black
10
206.867
20
-79.547
11
206.863
21
-79.5477
0
LINE
8
Black
10
206.863
20
-79.5477
11
206.859
21
-79.5492
0
LINE
8
Black
10
206.859
20
-79.5492
11
206.854
21
-79.5492
0
LINE
8
Black
10
206.854
20
-79.5492
11
206.85
21
-79.55
0
LINE
8
Black
10
206.85
20
-79.55
11
205.252
21
-79.55
0
LINE
8
Black
10
205.252
20
-79.55
11
205.209
21
-79.5538
0
LINE
8
Black
10
205.209
20
-79.5538
11
205.125
21
-79.5842
0
LINE
8
Black
10
205.125
20
-79.5842
11
205.059
21
-79.6398
0
LINE
8
Black
10
205.059
20
-79.6398
11
205.016
21
-79.7148
0
LINE
8
Black
10
205.016
20
-79.7148
11
205
21
-79.8044
0
LINE
8
Black
10
205
20
-79.8044
11
205
21
-82.1978
0
LINE
8
Black
10
205
20
-82.1978
11
205.004
21
-82.2412
0
LINE
8
Black
10
205.004
20
-82.2412
11
205.034
21
-82.3246
0
LINE
8
Black
10
205.034
20
-82.3246
11
205.09
21
-82.3909
0
LINE
8
Black
10
205.09
20
-82.3909
11
205.165
21
-82.4342
0
LINE
8
Black
10
205.165
20
-82.4342
11
205.254
21
-82.45
0
LINE
8
Black
10
205.254
20
-82.45
11
206.85
21
-82.45
0
LINE
8
Black
10
206.85
20
-82.45
11
206.854
21
-82.4508
0
LINE
8
Black
10
206.854
20
-82.4508
11
206.859
21
-82.4508
0
LINE
8
Black
10
206.859
20
-82.4508
11
206.863
21
-82.4523
0
LINE
8
Black
10
206.863
20
-82.4523
11
206.867
21
-82.453
0
LINE
8
Black
10
206.867
20
-82.453
11
206.871
21
-82.4552
0
LINE
8
Black
10
206.871
20
-82.4552
11
206.875
21
-82.4567
0
LINE
8
Black
10
206.875
20
-82.4567
11
206.878
21
-82.4595
0
LINE
8
Black
10
206.878
20
-82.4595
11
206.882
21
-82.4617
0
LINE
8
Black
10
206.882
20
-82.4617
11
206.885
21
-82.465
0
LINE
8
Black
10
206.885
20
-82.465
11
206.888
21
-82.4679
0
LINE
8
Black
10
206.888
20
-82.4679
11
206.89
21
-82.4716
0
LINE
8
Black
10
206.89
20
-82.4716
11
206.893
21
-82.475
0
LINE
8
Black
10
206.893
20
-82.475
11
206.895
21
-82.4791
0
LINE
8
Black
10
206.895
20
-82.4791
11
206.897
21
-82.4829
0
LINE
8
Black
10
206.897
20
-82.4829
11
206.898
21
-82.4872
0
LINE
8
Black
10
206.898
20
-82.4872
11
206.899
21
-82.4913
0
LINE
8
Black
10
206.899
20
-82.4913
11
206.899
21
-82.4957
0
LINE
8
Black
10
206.899
20
-82.4957
11
206.9
21
-82.5
0
LINE
8
Black
10
206.9
20
-82.5
11
206.9
21
-90.5
0
LINE
8
Black
10
206.9
20
-90.5
11
206.899
21
-90.5043
0
LINE
8
Black
10
206.899
20
-90.5043
11
206.899
21
-90.5087
0
LINE
8
Black
10
206.899
20
-90.5087
11
206.898
21
-90.5128
0
LINE
8
Black
10
206.898
20
-90.5128
11
206.897
21
-90.5171
0
LINE
8
Black
10
206.897
20
-90.5171
11
206.895
21
-90.5209
0
LINE
8
Black
10
206.895
20
-90.5209
11
206.893
21
-90.525
0
LINE
8
Black
10
206.893
20
-90.525
11
206.89
21
-90.5284
0
LINE
8
Black
10
206.89
20
-90.5284
11
206.888
21
-90.5321
0
LINE
8
Black
10
206.888
20
-90.5321
11
206.885
21
-90.535
0
LINE
8
Black
10
206.885
20
-90.535
11
206.882
21
-90.5383
0
LINE
8
Black
10
206.882
20
-90.5383
11
206.878
21
-90.5405
0
LINE
8
Black
10
206.878
20
-90.5405
11
206.875
21
-90.5433
0
LINE
8
Black
10
206.875
20
-90.5433
11
206.871
21
-90.5448
0
LINE
8
Black
10
206.871
20
-90.5448
11
206.867
21
-90.547
0
LINE
8
Black
10
206.867
20
-90.547
11
206.863
21
-90.5477
0
LINE
8
Black
10
206.863
20
-90.5477
11
206.859
21
-90.5492
0
LINE
8
Black
10
206.859
20
-90.5492
11
206.854
21
-90.5492
0
LINE
8
Black
10
206.854
20
-90.5492
11
206.85
21
-90.55
0
LINE
8
Black
10
206.85
20
-90.55
11
128.925
21
-90.55
0
LINE
8
Black
10
128.925
20
-90.55
11
128.921
21
-90.5492
0
LINE
8
Black
10
128.921
20
-90.5492
11
128.916
21
-90.5492
0
LINE
8
Black
10
128.916
20
-90.5492
11
128.912
21
-90.5477
0
LINE
8
Black
10
128.912
20
-90.5477
11
128.908
21
-90.547
0
LINE
8
Black
10
128.908
20
-90.547
11
128.904
21
-90.5448
0
LINE
8
Black
10
128.904
20
-90.5448
11
128.9
21
-90.5433
0
LINE
8
Black
10
128.9
20
-90.5433
11
128.897
21
-90.5405
0
LINE
8
Black
10
128.897
20
-90.5405
11
128.893
21
-90.5383
0
LINE
8
Black
10
128.893
20
-90.5383
11
128.89
21
-90.535
0
LINE
8
Black
10
128.89
20
-90.535
11
128.887
21
-90.5321
0
LINE
8
Black
10
128.887
20
-90.5321
11
128.885
21
-90.5284
0
LINE
8
Black
10
128.885
20
-90.5284
11
128.882
21
-90.525
0
LINE
8
Black
10
128.882
20
-90.525
11
128.88
21
-90.5209
0
LINE
8
Black
10
128.88
20
-90.5209
11
128.878
21
-90.5171
0
LINE
8
Black
10
128.878
20
-90.5171
11
128.877
21
-90.5128
0
LINE
8
Black
10
128.877
20
-90.5128
11
128.876
21
-90.5087
0
LINE
8
Black
10
128.876
20
-90.5087
11
128.876
21
-90.5043
0
LINE
8
Black
10
128.876
20
-90.5043
11
128.875
21
-90.5
0
LINE
8
Black
10
128.875
20
-90.5
11
128.875
21
-87.4544
0
LINE
8
Black
10
128.875
20
-87.4544
11
128.832
21
-87.2108
0
LINE
8
Black
10
128.832
20
-87.2108
11
128.711
21
-87.0005
0
LINE
8
Black
10
128.711
20
-87.0005
11
128.525
21
-86.8444
0
LINE
8
Black
10
128.525
20
-86.8444
11
128.296
21
-86.7614
0
LINE
8
Black
10
128.296
20
-86.7614
11
128.054
21
-86.7614
0
LINE
8
Black
10
128.054
20
-86.7614
11
127.825
21
-86.8445
0
LINE
8
Black
10
127.825
20
-86.8445
11
127.639
21
-87.0005
0
LINE
8
Black
10
127.639
20
-87.0005
11
127.518
21
-87.2108
0
LINE
8
Black
10
127.518
20
-87.2108
11
127.475
21
-87.4544
0
LINE
8
Black
10
127.475
20
-87.4544
11
127.475
21
-90.5
0
LINE
8
Black
10
127.475
20
-90.5
11
127.474
21
-90.5043
0
LINE
8
Black
10
127.474
20
-90.5043
11
127.474
21
-90.5087
0
LINE
8
Black
10
127.474
20
-90.5087
11
127.473
21
-90.5128
0
LINE
8
Black
10
127.473
20
-90.5128
11
127.472
21
-90.5171
0
LINE
8
Black
10
127.472
20
-90.5171
11
127.47
21
-90.5209
0
LINE
8
Black
10
127.47
20
-90.5209
11
127.468
21
-90.525
0
LINE
8
Black
10
127.468
20
-90.525
11
127.465
21
-90.5284
0
LINE
8
Black
10
127.465
20
-90.5284
11
127.463
21
-90.5321
0
LINE
8
Black
10
127.463
20
-90.5321
11
127.46
21
-90.535
0
LINE
8
Black
10
127.46
20
-90.535
11
127.457
21
-90.5383
0
LINE
8
Black
10
127.457
20
-90.5383
11
127.453
21
-90.5405
0
LINE
8
Black
10
127.453
20
-90.5405
11
127.45
21
-90.5433
0
LINE
8
Black
10
127.45
20
-90.5433
11
127.446
21
-90.5448
0
LINE
8
Black
10
127.446
20
-90.5448
11
127.442
21
-90.547
0
LINE
8
Black
10
127.442
20
-90.547
11
127.438
21
-90.5477
0
LINE
8
Black
10
127.438
20
-90.5477
11
127.434
21
-90.5492
0
LINE
8
Black
10
127.434
20
-90.5492
11
127.429
21
-90.5492
0
LINE
8
Black
10
127.429
20
-90.5492
11
127.425
21
-90.55
0
LINE
8
Black
10
127.425
20
-90.55
11
73.5
21
-90.55
0
LINE
8
Black
10
73.5
20
-90.55
11
73.4957
21
-90.5492
0
LINE
8
Black
10
73.4957
20
-90.5492
11
73.4913
21
-90.5492
0
LINE
8
Black
10
73.4913
20
-90.5492
11
73.4872
21
-90.5477
0
LINE
8
Black
10
73.4872
20
-90.5477
11
73.4829
21
-90.547
0
LINE
8
Black
10
73.4829
20
-90.547
11
73.4791
21
-90.5448
0
LINE
8
Black
10
73.4791
20
-90.5448
11
73.475
21
-90.5433
0
LINE
8
Black
10
73.475
20
-90.5433
11
73.4716
21
-90.5405
0
LINE
8
Black
10
73.4716
20
-90.5405
11
73.4679
21
-90.5383
0
LINE
8
Black
10
73.4679
20
-90.5383
11
73.465
21
-90.535
0
LINE
8
Black
10
73.465
20
-90.535
11
73.4617
21
-90.5321
0
LINE
8
Black
10
73.4617
20
-90.5321
11
73.4595
21
-90.5284
0
LINE
8
Black
10
73.4595
20
-90.5284
11
73.4567
21
-90.525
0
LINE
8
Black
10
73.4567
20
-90.525
11
73.4552
21
-90.5209
0
LINE
8
Black
10
73.4552
20
-90.5209
11
73.453
21
-90.5171
0
LINE
8
Black
10
73.453
20
-90.5171
11
73.4523
21
-90.5128
0
LINE
8
Black
10
73.4523
20
-90.5128
11
73.4508
21
-90.5087
0
LINE
8
Black
10
73.4508
20
-90.5087
11
73.4508
21
-90.5043
0
LINE
8
Black
10
73.4508
20
-90.5043
11
73.45
21
-90.5
0
LINE
8
Black
10
73.45
20
-90.5
11
73.45
21
-82.5
0
LINE
8
Black
10
73.45
20
-82.5
11
73.4508
21
-82.4957
0
LINE
8
Black
10
73.4508
20
-82.4957
11
73.4508
21
-82.4913
0
LINE
8
Black
10
73.4508
20
-82.4913
11
73.4523
21
-82.4872
0
LINE
8
Black
10
73.4523
20
-82.4872
11
73.453
21
-82.4829
0
LINE
8
Black
10
73.453
20
-82.4829
11
73.4552
21
-82.4791
0
LINE
8
Black
10
73.4552
20
-82.4791
11
73.4567
21
-82.475
0
LINE
8
Black
10
73.4567
20
-82.475
11
73.4595
21
-82.4716
0
LINE
8
Black
10
73.4595
20
-82.4716
11
73.4617
21
-82.4679
0
LINE
8
Black
10
73.4617
20
-82.4679
11
73.465
21
-82.465
0
LINE
8
Black
10
73.465
20
-82.465
11
73.4679
21
-82.4617
0
LINE
8
Black
10
73.4679
20
-82.4617
11
73.4716
21
-82.4595
0
LINE
8
Black
10
73.4716
20
-82.4595
11
73.475
21
-82.4567
0
LINE
8
Black
10
73.475
20
-82.4567
11
73.4791
21
-82.4552
0
LINE
8
Black
10
73.4791
20
-82.4552
11
73.4829
21
-82.453
0
LINE
8
Black
10
73.4829
20
-82.453
11
73.4872
21
-82.4523
0
LINE
8
Black
10
73.4872
20
-82.4523
11
73.4913
21
-82.4508
0
LINE
8
Black
10
73.4913
20
-82.4508
11
73.4957
21
-82.4508
0
LINE
8
Black
10
73.4957
20
-82.4508
11
73.5
21
-82.45
0
LINE
8
Black
10
73.5
20
-82.45
11
75.0978
21
-82.45
0
LINE
8
Black
10
75.0978
20
-82.45
11
75.1412
21
-82.4462
0
LINE
8
Black
10
75.1412
20
-82.4462
11
75.2246
21
-82.4158
0
LINE
8
Black
10
75.2246
20
-82.4158
11
75.2909
21
-82.3602
0
LINE
8
Black
10
75.2909
20
-82.3602
11
75.3342
21
-82.2852
0
LINE
8
Black
10
75.3342
20
-82.2852
11
75.35
21
-82.1956
0
LINE
8
Black
10
75.35
20
-82.1956
11
75.35
21
-79.8022
0
LINE
8
Black
10
75.35
20
-79.8022
11
75.3462
21
-79.7588
0
LINE
8
Black
10
75.3462
20
-79.7588
11
75.3158
21
-79.6754
0
LINE
8
Black
10
75.3158
20
-79.6754
11
75.2602
21
-79.6091
0
LINE
8
Black
10
75.2602
20
-79.6091
11
75.1852
21
-79.5658
0
LINE
8
Black
10
75.1852
20
-79.5658
11
75.0956
21
-79.55
0
LINE
8
Black
10
75.0956
20
-79.55
11
73.5
21
-79.55
0
LINE
8
Black
10
73.5
20
-79.55
11
73.4957
21
-79.5492
0
LINE
8
Black
10
73.4957
20
-79.5492
11
73.4913
21
-79.5492
0
LINE
8
Black
10
73.4913
20
-79.5492
11
73.4872
21
-79.5477
0
LINE
8
Black
10
73.4872
20
-79.5477
11
73.4829
21
-79.547
0
LINE
8
Black
10
73.4829
20
-79.547
11
73.4791
21
-79.5448
0
LINE
8
Black
10
73.4791
20
-79.5448
11
73.475
21
-79.5433
0
LINE
8
Black
10
73.475
20
-79.5433
11
73.4716
21
-79.5405
0
LINE
8
Black
10
73.4716
20
-79.5405
11
73.4679
21
-79.5383
0
LINE
8
Black
10
73.4679
20
-79.5383
11
73.465
21
-79.535
0
LINE
8
Black
10
73.465
20
-79.535
11
73.4617
21
-79.5321
0
LINE
8
Black
10
73.4617
20
-79.5321
11
73.4595
21
-79.5284
0
LINE
8
Black
10
73.4595
20
-79.5284
11
73.4567
21
-79.525
0
LINE
8
Black
10
73.4567
20
-79.525
11
73.4552
21
-79.5209
0
LINE
8
Black
10
73.4552
20
-79.5209
11
73.453
21
-79.5171
0
LINE
8
Black
10
73.453
20
-79.5171
11
73.4523
21
-79.5128
0
LINE
8
Black
10
73.4523
20
-79.5128
11
73.4508
21
-79.5087
0
LINE
8
Black
10
73.4508
20
-79.5087
11
73.4508
21
-79.5043
0
LINE
8
Black
10
73.4508
20
-79.5043
11
73.45
21
-79.5
0
LINE
8
Black
10
73.45
20
-79.5
11
73.45
21
-74.7
0
LINE
8
Black
10
73.45
20
-74.7
11
73.4508
21
-74.6957
0
LINE
8
Black
10
73.4508
20
-74.6957
11
73.4508
21
-74.6913
0
LINE
8
Black
10
73.4508
20
-74.6913
11
73.4523
21
-74.6872
0
LINE
8
Black
10
73.4523
20
-74.6872
11
73.453
21
-74.6829
0
LINE
8
Black
10
73.453
20
-74.6829
11
73.4552
21
-74.6791
0
LINE
8
Black
10
73.4552
20
-74.6791
11
73.4567
21
-74.675
0
LINE
8
Black
10
73.4567
20
-74.675
11
73.4595
21
-74.6716
0
LINE
8
Black
10
73.4595
20
-74.6716
11
73.4617
21
-74.6679
0
LINE
8
Black
10
73.4617
20
-74.6679
11
73.465
21
-74.665
0
LINE
8
Black
10
73.465
20
-74.665
11
73.4679
21
-74.6617
0
LINE
8
Black
10
73.4679
20
-74.6617
11
73.4716
21
-74.6595
0
LINE
8
Black
10
73.4716
20
-74.6595
11
73.475
21
-74.6567
0
LINE
8
Black
10
73.475
20
-74.6567
11
73.4791
21
-74.6552
0
LINE
8
Black
10
73.4791
20
-74.6552
11
73.4829
21
-74.653
0
LINE
8
Black
10
73.4829
20
-74.653
11
73.4872
21
-74.6523
0
LINE
8
Black
10
73.4872
20
-74.6523
11
73.4913
21
-74.6508
0
LINE
8
Black
10
73.4913
20
-74.6508
11
73.4957
21
-74.6508
0
LINE
8
Black
10
73.4957
20
-74.6508
11
73.5
21
-74.65
0
LINE
8
Black
10
73.5
20
-74.65
11
75.0978
21
-74.65
0
LINE
8
Black
10
75.0978
20
-74.65
11
75.1412
21
-74.6462
0
LINE
8
Black
10
75.1412
20
-74.6462
11
75.2246
21
-74.6158
0
LINE
8
Black
10
75.2246
20
-74.6158
11
75.2909
21
-74.5602
0
LINE
8
Black
10
75.2909
20
-74.5602
11
75.3342
21
-74.4852
0
LINE
8
Black
10
75.3342
20
-74.4852
11
75.35
21
-74.3956
0
LINE
8
Black
10
75.35
20
-74.3956
11
75.35
21
-72.0022
0
LINE
8
Black
10
75.35
20
-72.0022
11
75.3462
21
-71.9588
0
LINE
8
Black
10
75.3462
20
-71.9588
11
75.3158
21
-71.8754
0
LINE
8
Black
10
75.3158
20
-71.8754
11
75.2602
21
-71.8091
0
LINE
8
Black
10
75.2602
20
-71.8091
11
75.1852
21
-71.7658
0
LINE
8
Black
10
75.1852
20
-71.7658
11
75.0956
21
-71.75
0
LINE
8
Black
10
75.0956
20
-71.75
11
73.5
21
-71.75
0
LINE
8
Black
10
73.5
20
-71.75
11
73.4957
21
-71.7492
0
LINE
8
Black
10
73.4957
20
-71.7492
11
73.4913
21
-71.7492
0
LINE
8
Black
10
73.4913
20
-71.7492
11
73.4872
21
-71.7477
0
LINE
8
Black
10
73.4872
20
-71.7477
11
73.4829
21
-71.747
0
LINE
8
Black
10
73.4829
20
-71.747
11
73.4791
21
-71.7448
0
LINE
8
Black
10
73.4791
20
-71.7448
11
73.475
21
-71.7433
0
LINE
8
Black
10
73.475
20
-71.7433
11
73.4716
21
-71.7405
0
LINE
8
Black
10
73.4716
20
-71.7405
11
73.4679
21
-71.7383
0
LINE
8
Black
10
73.4679
20
-71.7383
11
73.465
21
-71.735
0
LINE
8
Black
10
73.465
20
-71.735
11
73.4617
21
-71.7321
0
LINE
8
Black
10
73.4617
20
-71.7321
11
73.4595
21
-71.7284
0
LINE
8
Black
10
73.4595
20
-71.7284
11
73.4567
21
-71.725
0
LINE
8
Black
10
73.4567
20
-71.725
11
73.4552
21
-71.7209
0
LINE
8
Black
10
73.4552
20
-71.7209
11
73.453
21
-71.7171
0
LINE
8
Black
10
73.453
20
-71.7171
11
73.4523
21
-71.7128
0
LINE
8
Black
10
73.4523
20
-71.7128
11
73.4508
21
-71.7087
0
LINE
8
Black
10
73.4508
20
-71.7087
11
73.4508
21
-71.7043
0
LINE
8
Black
10
73.4508
20
-71.7043
11
73.45
21
-71.7
0
LINE
8
Black
10
73.45
20
-71.7
11
73.45
21
-62.5
0
LINE
8
Black
10
73.45
20
-62.5
11
73.4508
21
-62.4957
0
LINE
8
Black
10
73.4508
20
-62.4957
11
73.4508
21
-62.4913
0
LINE
8
Black
10
73.4508
20
-62.4913
11
73.4523
21
-62.4872
0
LINE
8
Black
10
73.4523
20
-62.4872
11
73.453
21
-62.4829
0
LINE
8
Black
10
73.453
20
-62.4829
11
73.4552
21
-62.4791
0
LINE
8
Black
10
73.4552
20
-62.4791
11
73.4567
21
-62.475
0
LINE
8
Black
10
73.4567
20
-62.475
11
73.4595
21
-62.4716
0
LINE
8
Black
10
73.4595
20
-62.4716
11
73.4617
21
-62.4679
0
LINE
8
Black
10
73.4617
20
-62.4679
11
73.465
21
-62.465
0
LINE
8
Black
10
73.465
20
-62.465
11
73.4679
21
-62.4617
0
LINE
8
Black
10
73.4679
20
-62.4617
11
73.4716
21
-62.4595
0
LINE
8
Black
10
73.4716
20
-62.4595
11
73.475
21
-62.4567
0
LINE
8
Black
10
73.475
20
-62.4567
11
73.4791
21
-62.4552
0
LINE
8
Black
10
73.4791
20
-62.4552
11
73.4829
21
-62.453
0
LINE
8
Black
10
73.4829
20
-62.453
11
73.4872
21
-62.4523
0
LINE
8
Black
10
73.4872
20
-62.4523
11
73.4913
21
-62.4508
0
LINE
8
Black
10
73.4913
20
-62.4508
11
73.4957
21
-62.4508
0
LINE
8
Black
10
73.4957
20
-62.4508
11
73.5
21
-62.45
0
LINE
8
Black
10
73.5
20
-62.45
11
206.85
21
-62.45
0
LINE
8
Black
10
206.85
20
-62.45
11
206.854
21
-62.4508
0
LINE
8
Black
10
128.305
20
-86.6614
11
128.322
21
-86.6644
0
LINE
8
Black
10
128.322
20
-86.6644
11
128.567
21
-86.7535
0
LINE
8
Black
10
128.567
20
-86.7535
11
128.582
21
-86.7622
0
LINE
8
Black
10
128.582
20
-86.7622
11
128.582
21
-86.7622
0
LINE
8
Black
10
128.582
20
-86.7622
11
128.782
21
-86.9296
0
LINE
8
Black
10
128.782
20
-86.9296
11
128.793
21
-86.9429
0
LINE
8
Black
10
128.793
20
-86.9429
11
128.793
21
-86.9429
0
LINE
8
Black
10
128.793
20
-86.9429
11
128.923
21
-87.1685
0
LINE
8
Black
10
128.923
20
-87.1685
11
128.929
21
-87.1848
0
LINE
8
Black
10
128.929
20
-87.1848
11
128.929
21
-87.1848
0
LINE
8
Black
10
128.929
20
-87.1848
11
128.974
21
-87.4413
0
LINE
8
Black
10
128.974
20
-87.4413
11
128.974
21
-87.4457
0
LINE
8
Black
10
128.974
20
-87.4457
11
128.975
21
-87.45
0
LINE
8
Black
10
128.975
20
-87.45
11
128.975
21
-90.45
0
LINE
8
Black
10
128.975
20
-90.45
11
206.8
21
-90.45
0
LINE
8
Black
10
206.8
20
-90.45
11
206.8
21
-82.55
0
LINE
8
Black
10
206.8
20
-82.55
11
205.25
21
-82.55
0
LINE
8
Black
10
205.25
20
-82.55
11
205.246
21
-82.5492
0
LINE
8
Black
10
205.246
20
-82.5492
11
205.241
21
-82.5492
0
LINE
8
Black
10
205.241
20
-82.5492
11
205.139
21
-82.5311
0
LINE
8
Black
10
205.139
20
-82.5311
11
205.139
21
-82.5311
0
LINE
8
Black
10
205.139
20
-82.5311
11
205.129
21
-82.5277
0
LINE
8
Black
10
205.129
20
-82.5277
11
205.122
21
-82.5252
0
LINE
8
Black
10
205.122
20
-82.5252
11
205.122
21
-82.5252
0
LINE
8
Black
10
205.122
20
-82.5252
11
205.032
21
-82.4731
0
LINE
8
Black
10
205.032
20
-82.4731
11
205.032
21
-82.4731
0
LINE
8
Black
10
205.032
20
-82.4731
11
205.019
21
-82.462
0
LINE
8
Black
10
205.019
20
-82.462
11
204.952
21
-82.3821
0
LINE
8
Black
10
204.952
20
-82.3821
11
204.951
21
-82.3806
0
LINE
8
Black
10
204.951
20
-82.3806
11
204.944
21
-82.3678
0
LINE
8
Black
10
204.944
20
-82.3678
11
204.943
21
-82.3671
0
LINE
8
Black
10
204.943
20
-82.3671
11
204.943
21
-82.3671
0
LINE
8
Black
10
204.943
20
-82.3671
11
204.908
21
-82.2692
0
LINE
8
Black
10
204.908
20
-82.2692
11
204.906
21
-82.2628
0
LINE
8
Black
10
204.906
20
-82.2628
11
204.905
21
-82.2565
0
LINE
8
Black
10
204.905
20
-82.2565
11
204.9
21
-82.2044
0
LINE
8
Black
10
204.9
20
-82.2044
11
204.9
21
-82.2022
0
LINE
8
Black
10
204.9
20
-82.2022
11
204.9
21
-82.2
0
LINE
8
Black
10
204.9
20
-82.2
11
204.9
21
-79.8
0
LINE
8
Black
10
204.9
20
-79.8
11
204.901
21
-79.7957
0
LINE
8
Black
10
204.901
20
-79.7957
11
204.901
21
-79.7913
0
LINE
8
Black
10
204.901
20
-79.7913
11
204.919
21
-79.6887
0
LINE
8
Black
10
204.919
20
-79.6887
11
204.919
21
-79.6887
0
LINE
8
Black
10
204.919
20
-79.6887
11
204.922
21
-79.6793
0
LINE
8
Black
10
204.922
20
-79.6793
11
204.925
21
-79.6724
0
LINE
8
Black
10
204.925
20
-79.6724
11
204.925
21
-79.6724
0
LINE
8
Black
10
204.925
20
-79.6724
11
204.977
21
-79.5822
0
LINE
8
Black
10
204.977
20
-79.5822
11
204.977
21
-79.5822
0
LINE
8
Black
10
204.977
20
-79.5822
11
204.988
21
-79.5689
0
LINE
8
Black
10
204.988
20
-79.5689
11
205.068
21
-79.5019
0
LINE
8
Black
10
205.068
20
-79.5019
11
205.068
21
-79.5019
0
LINE
8
Black
10
205.068
20
-79.5019
11
205.078
21
-79.4959
0
LINE
8
Black
10
205.078
20
-79.4959
11
205.083
21
-79.4932
0
LINE
8
Black
10
205.083
20
-79.4932
11
205.083
21
-79.4932
0
LINE
8
Black
10
205.083
20
-79.4932
11
205.181
21
-79.4576
0
LINE
8
Black
10
205.181
20
-79.4576
11
205.187
21
-79.4564
0
LINE
8
Black
10
205.187
20
-79.4564
11
205.194
21
-79.4547
0
LINE
8
Black
10
205.194
20
-79.4547
11
205.246
21
-79.4502
0
LINE
8
Black
10
205.246
20
-79.4502
11
205.248
21
-79.4504
0
LINE
8
Black
10
205.248
20
-79.4504
11
205.25
21
-79.45
0
LINE
8
Black
10
205.25
20
-79.45
11
206.8
21
-79.45
0
LINE
8
Black
10
206.8
20
-79.45
11
206.8
21
-74.75
0
LINE
8
Black
10
206.8
20
-74.75
11
205.25
21
-74.75
0
LINE
8
Black
10
205.25
20
-74.75
11
205.246
21
-74.7492
0
LINE
8
Black
10
205.246
20
-74.7492
11
205.241
21
-74.7492
0
LINE
8
Black
10
205.241
20
-74.7492
11
205.139
21
-74.7311
0
LINE
8
Black
10
205.139
20
-74.7311
11
205.139
21
-74.7311
0
LINE
8
Black
10
205.139
20
-74.7311
11
205.129
21
-74.7277
0
LINE
8
Black
10
205.129
20
-74.7277
11
205.122
21
-74.7252
0
LINE
8
Black
10
205.122
20
-74.7252
11
205.122
21
-74.7252
0
LINE
8
Black
10
205.122
20
-74.7252
11
205.032
21
-74.6731
0
LINE
8
Black
10
205.032
20
-74.6731
11
205.032
21
-74.6731
0
LINE
8
Black
10
205.032
20
-74.6731
11
205.019
21
-74.662
0
LINE
8
Black
10
205.019
20
-74.662
11
204.952
21
-74.5821
0
LINE
8
Black
10
204.952
20
-74.5821
11
204.951
21
-74.5806
0
LINE
8
Black
10
204.951
20
-74.5806
11
204.944
21
-74.5678
0
LINE
8
Black
10
204.944
20
-74.5678
11
204.943
21
-74.5671
0
LINE
8
Black
10
204.943
20
-74.5671
11
204.943
21
-74.5671
0
LINE
8
Black
10
204.943
20
-74.5671
11
204.908
21
-74.4692
0
LINE
8
Black
10
204.908
20
-74.4692
11
204.906
21
-74.4628
0
LINE
8
Black
10
204.906
20
-74.4628
11
204.905
21
-74.4565
0
LINE
8
Black
10
204.905
20
-74.4565
11
204.9
21
-74.4044
0
LINE
8
Black
10
204.9
20
-74.4044
11
204.9
21
-74.4022
0
LINE
8
Black
10
204.9
20
-74.4022
11
204.9
21
-74.4
0
LINE
8
Black
10
204.9
20
-74.4
11
204.9
21
-72
0
LINE
8
Black
10
204.9
20
-72
11
204.901
21
-71.9957
0
LINE
8
Black
10
204.901
20
-71.9957
11
204.901
21
-71.9913
0
LINE
8
Black
10
204.901
20
-71.9913
11
204.919
21
-71.8887
0
LINE
8
Black
10
204.919
20
-71.8887
11
204.919
21
-71.8887
0
LINE
8
Black
10
204.919
20
-71.8887
11
204.922
21
-71.8793
0
LINE
8
Black
10
204.922
20
-71.8793
11
204.925
21
-71.8724
0
LINE
8
Black
10
204.925
20
-71.8724
11
204.925
21
-71.8724
0
LINE
8
Black
10
204.925
20
-71.8724
11
204.977
21
-71.7822
0
LINE
8
Black
10
204.977
20
-71.7822
11
204.977
21
-71.7822
0
LINE
8
Black
10
204.977
20
-71.7822
11
204.988
21
-71.7689
0
LINE
8
Black
10
204.988
20
-71.7689
11
205.068
21
-71.7019
0
LINE
8
Black
10
205.068
20
-71.7019
11
205.068
21
-71.7019
0
LINE
8
Black
10
205.068
20
-71.7019
11
205.078
21
-71.6959
0
LINE
8
Black
10
205.078
20
-71.6959
11
205.083
21
-71.6932
0
LINE
8
Black
10
205.083
20
-71.6932
11
205.083
21
-71.6932
0
LINE
8
Black
10
205.083
20
-71.6932
11
205.181
21
-71.6576
0
LINE
8
Black
10
205.181
20
-71.6576
11
205.187
21
-71.6564
0
LINE
8
Black
10
205.187
20
-71.6564
11
205.194
21
-71.6547
0
LINE
8
Black
10
205.194
20
-71.6547
11
205.246
21
-71.6502
0
LINE
8
Black
10
205.246
20
-71.6502
11
205.248
21
-71.6504
0
LINE
8
Black
10
205.248
20
-71.6504
11
205.25
21
-71.65
0
LINE
8
Black
10
205.25
20
-71.65
11
206.8
21
-71.65
0
LINE
8
Black
10
206.8
20
-71.65
11
206.8
21
-62.55
0
LINE
8
Black
10
206.8
20
-62.55
11
73.55
21
-62.55
0
LINE
8
Black
10
73.55
20
-62.55
11
73.55
21
-71.65
0
LINE
8
Black
10
73.55
20
-71.65
11
75.1
21
-71.65
0
LINE
8
Black
10
75.1
20
-71.65
11
75.1043
21
-71.6508
0
LINE
8
Black
10
75.1043
20
-71.6508
11
75.1087
21
-71.6508
0
LINE
8
Black
10
75.1087
20
-71.6508
11
75.2113
21
-71.6689
0
LINE
8
Black
10
75.2113
20
-71.6689
11
75.2113
21
-71.6689
0
LINE
8
Black
10
75.2113
20
-71.6689
11
75.2207
21
-71.6723
0
LINE
8
Black
10
75.2207
20
-71.6723
11
75.2276
21
-71.6748
0
LINE
8
Black
10
75.2276
20
-71.6748
11
75.2276
21
-71.6748
0
LINE
8
Black
10
75.2276
20
-71.6748
11
75.3178
21
-71.7269
0
LINE
8
Black
10
75.3178
20
-71.7269
11
75.3178
21
-71.7269
0
LINE
8
Black
10
75.3178
20
-71.7269
11
75.3311
21
-71.738
0
LINE
8
Black
10
75.3311
20
-71.738
11
75.3981
21
-71.8179
0
LINE
8
Black
10
75.3981
20
-71.8179
11
75.3981
21
-71.8179
0
LINE
8
Black
10
75.3981
20
-71.8179
11
75.4018
21
-71.8242
0
LINE
8
Black
10
75.4018
20
-71.8242
11
75.4068
21
-71.8329
0
LINE
8
Black
10
75.4068
20
-71.8329
11
75.4068
21
-71.8329
0
LINE
8
Black
10
75.4068
20
-71.8329
11
75.4424
21
-71.9308
0
LINE
8
Black
10
75.4424
20
-71.9308
11
75.4436
21
-71.9372
0
LINE
8
Black
10
75.4436
20
-71.9372
11
75.4453
21
-71.9435
0
LINE
8
Black
10
75.4453
20
-71.9435
11
75.4498
21
-71.9956
0
LINE
8
Black
10
75.4498
20
-71.9956
11
75.4496
21
-71.9978
0
LINE
8
Black
10
75.4496
20
-71.9978
11
75.45
21
-72
0
LINE
8
Black
10
75.45
20
-72
11
75.45
21
-74.4
0
LINE
8
Black
10
75.45
20
-74.4
11
75.4492
21
-74.4043
0
LINE
8
Black
10
75.4492
20
-74.4043
11
75.4492
21
-74.4087
0
LINE
8
Black
10
75.4492
20
-74.4087
11
75.4311
21
-74.5113
0
LINE
8
Black
10
75.4311
20
-74.5113
11
75.4311
21
-74.5113
0
LINE
8
Black
10
75.4311
20
-74.5113
11
75.4277
21
-74.5207
0
LINE
8
Black
10
75.4277
20
-74.5207
11
75.4252
21
-74.5276
0
LINE
8
Black
10
75.4252
20
-74.5276
11
75.4252
21
-74.5276
0
LINE
8
Black
10
75.4252
20
-74.5276
11
75.3731
21
-74.6178
0
LINE
8
Black
10
75.3731
20
-74.6178
11
75.3731
21
-74.6178
0
LINE
8
Black
10
75.3731
20
-74.6178
11
75.362
21
-74.6311
0
LINE
8
Black
10
75.362
20
-74.6311
11
75.2821
21
-74.6981
0
LINE
8
Black
10
75.2821
20
-74.6981
11
75.2821
21
-74.6981
0
LINE
8
Black
10
75.2821
20
-74.6981
11
75.2792
21
-74.6998
0
LINE
8
Black
10
75.2792
20
-74.6998
11
75.2671
21
-74.7068
0
LINE
8
Black
10
75.2671
20
-74.7068
11
75.2671
21
-74.7068
0
LINE
8
Black
10
75.2671
20
-74.7068
11
75.1692
21
-74.7424
0
LINE
8
Black
10
75.1692
20
-74.7424
11
75.1628
21
-74.7436
0
LINE
8
Black
10
75.1628
20
-74.7436
11
75.1565
21
-74.7453
0
LINE
8
Black
10
75.1565
20
-74.7453
11
75.1044
21
-74.7498
0
LINE
8
Black
10
75.1044
20
-74.7498
11
75.1022
21
-74.7496
0
LINE
8
Black
10
75.1022
20
-74.7496
11
75.1
21
-74.75
0
LINE
8
Black
10
75.1
20
-74.75
11
73.55
21
-74.75
0
LINE
8
Black
10
73.55
20
-74.75
11
73.55
21
-79.45
0
LINE
8
Black
10
73.55
20
-79.45
11
75.1
21
-79.45
0
LINE
8
Black
10
75.1
20
-79.45
11
75.1043
21
-79.4508
0
LINE
8
Black
10
75.1043
20
-79.4508
11
75.1087
21
-79.4508
0
LINE
8
Black
10
75.1087
20
-79.4508
11
75.2113
21
-79.4689
0
LINE
8
Black
10
75.2113
20
-79.4689
11
75.2113
21
-79.4689
0
LINE
8
Black
10
75.2113
20
-79.4689
11
75.2207
21
-79.4723
0
LINE
8
Black
10
75.2207
20
-79.4723
11
75.2276
21
-79.4748
0
LINE
8
Black
10
75.2276
20
-79.4748
11
75.2276
21
-79.4748
0
LINE
8
Black
10
75.2276
20
-79.4748
11
75.3178
21
-79.5269
0
LINE
8
Black
10
75.3178
20
-79.5269
11
75.3178
21
-79.5269
0
LINE
8
Black
10
75.3178
20
-79.5269
11
75.3311
21
-79.538
0
LINE
8
Black
10
75.3311
20
-79.538
11
75.3981
21
-79.6179
0
LINE
8
Black
10
75.3981
20
-79.6179
11
75.3981
21
-79.6179
0
LINE
8
Black
10
75.3981
20
-79.6179
11
75.4018
21
-79.6242
0
LINE
8
Black
10
75.4018
20
-79.6242
11
75.4068
21
-79.6329
0
LINE
8
Black
10
75.4068
20
-79.6329
11
75.4068
21
-79.6329
0
LINE
8
Black
10
75.4068
20
-79.6329
11
75.4424
21
-79.7308
0
LINE
8
Black
10
75.4424
20
-79.7308
11
75.4436
21
-79.7372
0
LINE
8
Black
10
75.4436
20
-79.7372
11
75.4453
21
-79.7435
0
LINE
8
Black
10
75.4453
20
-79.7435
11
75.4498
21
-79.7956
0
LINE
8
Black
10
75.4498
20
-79.7956
11
75.4496
21
-79.7978
0
LINE
8
Black
10
75.4496
20
-79.7978
11
75.45
21
-79.8
0
LINE
8
Black
10
75.45
20
-79.8
11
75.45
21
-82.2
0
LINE
8
Black
10
75.45
20
-82.2
11
75.4492
21
-82.2043
0
LINE
8
Black
10
75.4492
20
-82.2043
11
75.4492
21
-82.2087
0
LINE
8
Black
10
75.4492
20
-82.2087
11
75.4311
21
-82.3113
0
LINE
8
Black
10
75.4311
20
-82.3113
11
75.4311
21
-82.3113
0
LINE
8
Black
10
75.4311
20
-82.3113
11
75.4277
21
-82.3207
0
LINE
8
Black
10
75.4277
20
-82.3207
11
75.4252
21
-82.3276
0
LINE
8
Black
10
75.4252
20
-82.3276
11
75.4252
21
-82.3276
0
LINE
8
Black
10
75.4252
20
-82.3276
11
75.3731
21
-82.4178
0
LINE
8
Black
10
75.3731
20
-82.4178
11
75.3731
21
-82.4178
0
LINE
8
Black
10
75.3731
20
-82.4178
11
75.362
21
-82.4311
0
LINE
8
Black
10
75.362
20
-82.4311
11
75.2821
21
-82.4981
0
LINE
8
Black
10
75.2821
20
-82.4981
11
75.2821
21
-82.4981
0
LINE
8
Black
10
75.2821
20
-82.4981
11
75.2792
21
-82.4998
0
LINE
8
Black
10
75.2792
20
-82.4998
11
75.2671
21
-82.5068
0
LINE
8
Black
10
75.2671
20
-82.5068
11
75.2671
21
-82.5068
0
LINE
8
Black
10
75.2671
20
-82.5068
11
75.1692
21
-82.5424
0
LINE
8
Black
10
75.1692
20
-82.5424
11
75.1628
21
-82.5436
0
LINE
8
Black
10
75.1628
20
-82.5436
11
75.1565
21
-82.5453
0
LINE
8
Black
10
75.1565
20
-82.5453
11
75.1044
21
-82.5498
0
LINE
8
Black
10
75.1044
20
-82.5498
11
75.1022
21
-82.5496
0
LINE
8
Black
10
75.1022
20
-82.5496
11
75.1
21
-82.55
0
LINE
8
Black
10
75.1
20
-82.55
11
73.55
21
-82.55
0
LINE
8
Black
10
73.55
20
-82.55
11
73.55
21
-90.45
0
LINE
8
Black
10
73.55
20
-90.45
11
127.375
21
-90.45
0
LINE
8
Black
10
127.375
20
-90.45
11
127.375
21
-87.45
0
LINE
8
Black
10
127.375
20
-87.45
11
127.376
21
-87.4457
0
LINE
8
Black
10
127.376
20
-87.4457
11
127.376
21
-87.4413
0
LINE
8
Black
10
127.376
20
-87.4413
11
127.421
21
-87.1848
0
LINE
8
Black
10
127.421
20
-87.1848
11
127.421
21
-87.1848
0
LINE
8
Black
10
127.421
20
-87.1848
11
127.424
21
-87.1754
0
LINE
8
Black
10
127.424
20
-87.1754
11
127.427
21
-87.1685
0
LINE
8
Black
10
127.427
20
-87.1685
11
127.427
21
-87.1685
0
LINE
8
Black
10
127.427
20
-87.1685
11
127.557
21
-86.9429
0
LINE
8
Black
10
127.557
20
-86.9429
11
127.568
21
-86.9296
0
LINE
8
Black
10
127.568
20
-86.9296
11
127.568
21
-86.9296
0
LINE
8
Black
10
127.568
20
-86.9296
11
127.768
21
-86.7622
0
LINE
8
Black
10
127.768
20
-86.7622
11
127.768
21
-86.7622
0
LINE
8
Black
10
127.768
20
-86.7622
11
127.783
21
-86.7535
0
LINE
8
Black
10
127.783
20
-86.7535
11
128.028
21
-86.6644
0
LINE
8
Black
10
128.028
20
-86.6644
11
128.028
21
-86.6644
0
LINE
8
Black
10
128.028
20
-86.6644
11
128.042
21
-86.6618
0
LINE
8
Black
10
128.042
20
-86.6618
11
128.045
21
-86.6614
0
LINE
8
Black
10
128.045
20
-86.6614
11
128.045
21
-86.6614
0
LINE
8
Black
10
128.045
20
-86.6614
11
128.305
21
-86.6614
  0
ENDSEC
  0
EOF
